<?xml version="1.0" encoding="UTF-8"?>
<svg xmlns="http://www.w3.org/2000/svg" xmlns:xlink="http://www.w3.org/1999/xlink" width="23px" height="15px" viewBox="0 0 22 15" version="1.1">
<g id="surface1">
<path style=" stroke:none;fill-rule:nonzero;fill:rgb(0%,0%,0%);fill-opacity:1;" d="M 6.355469 2.816406 C 5.71875 2.878906 5.269531 3.320312 5.207031 3.941406 C 5.175781 4.234375 5.175781 10.765625 5.207031 11.058594 C 5.257812 11.574219 5.59375 11.984375 6.085938 12.136719 C 6.203125 12.171875 6.671875 12.175781 11.003906 12.175781 C 15.707031 12.175781 15.789062 12.175781 15.941406 12.125 C 16.332031 12.003906 16.660156 11.65625 16.765625 11.257812 C 16.804688 11.113281 16.804688 3.886719 16.765625 3.742188 C 16.664062 3.347656 16.34375 3.007812 15.941406 2.867188 L 15.777344 2.8125 L 11.109375 2.808594 C 8.542969 2.808594 6.402344 2.8125 6.355469 2.816406 Z M 14.9375 4.070312 C 14.9375 4.085938 11.414062 7.507812 10.996094 7.898438 L 10.851562 8.03125 L 9.023438 6.183594 C 8.019531 5.164062 7.140625 4.28125 7.070312 4.210938 C 7 4.148438 6.941406 4.082031 6.941406 4.074219 C 6.941406 4.058594 8.742188 4.050781 10.9375 4.050781 C 13.136719 4.050781 14.9375 4.058594 14.9375 4.070312 Z M 15.59375 8.058594 C 15.59375 10.640625 15.589844 10.921875 15.554688 10.933594 C 15.535156 10.941406 13.472656 10.949219 10.976562 10.949219 C 6.941406 10.949219 6.429688 10.945312 6.417969 10.914062 C 6.398438 10.859375 6.402344 5.324219 6.421875 5.324219 C 6.429688 5.324219 6.714844 5.605469 7.050781 5.945312 C 9.527344 8.449219 10.144531 9.066406 10.273438 9.152344 C 10.472656 9.285156 10.632812 9.335938 10.851562 9.335938 C 11.214844 9.335938 11.40625 9.222656 11.96875 8.679688 C 12.179688 8.476562 13.078125 7.609375 13.957031 6.753906 C 14.835938 5.898438 15.566406 5.203125 15.574219 5.199219 C 15.585938 5.199219 15.59375 6.488281 15.59375 8.058594 Z M 15.59375 8.058594 "/>
</g>
</svg>
