<?xml version="1.0" encoding="UTF-8"?>
<svg xmlns="http://www.w3.org/2000/svg" xmlns:xlink="http://www.w3.org/1999/xlink" width="40px" height="40px" viewBox="0 0 40 40" version="1.1">
<g id="surface1">
<path style=" stroke:none;fill-rule:nonzero;fill:rgb(0%,0%,0%);fill-opacity:1;" d="M 22.800781 0.179688 C 22.621094 0.222656 22.414062 0.441406 21.765625 1.246094 C 20.941406 2.261719 20.332031 3.191406 19.820312 4.214844 C 19.539062 4.785156 19.15625 5.699219 19.089844 5.96875 C 19.070312 6.035156 19.039062 6.089844 19.023438 6.089844 C 19 6.089844 18.890625 5.957031 18.773438 5.785156 C 18.496094 5.398438 17.878906 4.78125 17.511719 4.523438 C 16.921875 4.105469 16.261719 3.839844 15.507812 3.714844 C 15.277344 3.679688 14.65625 3.625 14.132812 3.601562 C 12.796875 3.535156 12.457031 3.472656 11.933594 3.207031 C 11.582031 3.035156 11.121094 2.535156 10.898438 2.089844 L 10.710938 1.710938 L 10.710938 2 C 10.714844 2.578125 10.871094 3.40625 11.089844 3.957031 C 11.222656 4.292969 11.5625 4.839844 11.816406 5.121094 C 12.34375 5.699219 13.101562 6.136719 14.066406 6.414062 C 14.667969 6.585938 15.027344 6.652344 16.410156 6.84375 C 17.269531 6.964844 18.050781 7.140625 18.105469 7.234375 C 18.117188 7.253906 17.800781 7.265625 17.410156 7.269531 C 16.386719 7.277344 15.703125 7.417969 15 7.769531 C 14.28125 8.128906 13.863281 8.492188 13.03125 9.507812 C 12.699219 9.910156 12.296875 10.386719 12.140625 10.5625 C 11.492188 11.300781 10.679688 11.808594 9.777344 12.039062 C 9.425781 12.132812 9.425781 12.136719 10.269531 12.417969 C 13.683594 13.550781 16.410156 12.777344 18.171875 10.171875 C 18.414062 9.8125 18.863281 8.96875 19.027344 8.570312 C 19.078125 8.425781 19.132812 8.320312 19.140625 8.324219 C 19.152344 8.332031 19.097656 8.632812 19.027344 8.980469 C 18.78125 10.207031 18.738281 10.617188 18.738281 11.667969 C 18.738281 12.496094 18.75 12.71875 18.835938 13.148438 C 19.136719 14.671875 19.792969 15.828125 20.898438 16.804688 C 21.28125 17.140625 22.027344 17.675781 22.0625 17.640625 C 22.140625 17.558594 22.453125 16.21875 22.5625 15.488281 C 22.679688 14.679688 22.671875 13.191406 22.542969 12.421875 C 22.324219 11.152344 21.832031 9.703125 21.171875 8.386719 C 21.089844 8.222656 21.039062 8.089844 21.0625 8.089844 C 21.078125 8.089844 21.308594 8.332031 21.558594 8.632812 C 22.539062 9.792969 23.71875 10.882812 24.6875 11.523438 C 26.359375 12.621094 28.070312 12.929688 29.691406 12.417969 C 30.101562 12.289062 31.054688 11.816406 31.023438 11.753906 C 31.007812 11.734375 30.835938 11.65625 30.636719 11.589844 C 29.742188 11.292969 29.207031 10.929688 28.171875 9.929688 C 27.753906 9.523438 27.269531 9.089844 27.097656 8.960938 C 26.429688 8.464844 25.746094 8.148438 24.839844 7.914062 C 24.253906 7.765625 24.28125 7.761719 25.378906 7.84375 C 26.71875 7.949219 27.257812 7.925781 27.867188 7.738281 C 28.613281 7.503906 29.375 6.828125 30.054688 5.777344 C 30.253906 5.472656 30.753906 4.5625 30.738281 4.546875 C 30.730469 4.539062 30.578125 4.59375 30.398438 4.667969 C 29.761719 4.941406 29.480469 4.992188 28.601562 4.992188 C 27.929688 4.992188 27.683594 4.972656 27.089844 4.871094 C 26.226562 4.722656 25.203125 4.675781 24.664062 4.753906 C 23.691406 4.894531 22.671875 5.394531 21.65625 6.226562 C 21.332031 6.488281 21.332031 6.496094 21.449219 5.84375 C 21.792969 3.890625 22.675781 2.125 23.972656 0.828125 L 24.277344 0.519531 L 24.171875 0.441406 C 23.890625 0.21875 23.171875 0.078125 22.800781 0.179688 Z M 22.800781 0.179688 "/>
<path style=" stroke:none;fill-rule:nonzero;fill:rgb(0%,0%,0%);fill-opacity:1;" d="M 9.421875 5.753906 C 7.644531 6.234375 6.117188 6.972656 4.800781 7.992188 C 4.277344 8.394531 3.332031 9.355469 2.914062 9.902344 C 1.300781 12.027344 0.410156 14.707031 0.078125 18.398438 C 0.00390625 19.226562 0.00390625 21.71875 0.078125 22.398438 C 0.761719 28.671875 4.894531 34.367188 10.910156 37.332031 C 13.019531 38.367188 15.105469 38.988281 17.488281 39.269531 C 18.394531 39.382812 20.464844 39.40625 21.488281 39.316406 C 29.238281 38.648438 35.425781 34.09375 37.992188 27.15625 C 38.894531 24.714844 39.3125 22.332031 39.363281 19.375 C 39.40625 17.027344 39.25 15.511719 38.78125 13.816406 C 38.382812 12.363281 37.679688 10.949219 36.8125 9.851562 C 35.75 8.507812 33.941406 7.25 32.152344 6.609375 L 31.832031 6.492188 L 31.804688 6.703125 C 31.773438 6.9375 31.601562 7.261719 31.359375 7.542969 C 30.941406 8.027344 29.882812 8.644531 29.238281 8.78125 L 28.894531 8.859375 L 29.140625 8.960938 C 29.277344 9.019531 29.71875 9.253906 30.128906 9.484375 C 31.574219 10.3125 32.003906 10.464844 32.742188 10.429688 L 33.195312 10.410156 L 33.167969 10.550781 C 32.921875 11.941406 32.101562 13.453125 31.296875 14.007812 C 30.148438 14.804688 28.125 15.035156 26.535156 14.554688 C 26.03125 14.40625 25.417969 14.097656 25.078125 13.828125 L 24.808594 13.605469 L 24.777344 14.167969 C 24.703125 15.691406 24.585938 16.691406 24.40625 17.414062 C 24.074219 18.699219 23.542969 19.644531 22.851562 20.179688 C 22.519531 20.4375 22.554688 20.429688 21.890625 20.214844 C 20.929688 19.898438 20.023438 19.347656 19.355469 18.671875 C 18.492188 17.804688 17.996094 16.875 17.359375 14.941406 C 17.246094 14.59375 17.140625 14.3125 17.132812 14.3125 C 17.125 14.3125 16.871094 14.40625 16.570312 14.515625 C 15.546875 14.902344 14.773438 15.128906 14.089844 15.253906 C 13.539062 15.347656 12.003906 15.324219 11.359375 15.203125 C 9.410156 14.851562 7.84375 13.964844 7.011719 12.742188 C 6.8125 12.449219 6.625 11.96875 6.621094 11.75 C 6.621094 11.613281 6.632812 11.609375 7.101562 11.445312 C 8.488281 10.949219 9.820312 10.207031 10.800781 9.386719 C 11.257812 9 11.574219 8.644531 11.832031 8.21875 C 12.011719 7.921875 12.035156 7.820312 11.9375 7.820312 C 11.902344 7.820312 11.6875 7.730469 11.460938 7.613281 C 11.140625 7.457031 10.96875 7.332031 10.730469 7.09375 C 10.554688 6.921875 10.375 6.699219 10.320312 6.59375 C 10.207031 6.382812 10.089844 5.929688 10.089844 5.738281 C 10.089844 5.652344 10.066406 5.601562 10.035156 5.605469 C 10.003906 5.605469 9.730469 5.675781 9.421875 5.753906 Z M 9.421875 5.753906 "/>
</g>
</svg>
