<?xml version="1.0" encoding="UTF-8"?>
<svg xmlns="http://www.w3.org/2000/svg" xmlns:xlink="http://www.w3.org/1999/xlink" width="23px" height="15px" viewBox="0 0 15 15" version="1.1">
<g id="surface1">
<path style=" stroke:none;fill-rule:nonzero;fill:rgb(0%,0%,0%);fill-opacity:1;" d="M 5.234375 1.585938 C 4.96875 1.675781 4.78125 1.863281 4.691406 2.121094 L 4.65625 2.226562 L 4.65625 12.789062 L 4.691406 12.898438 C 4.785156 13.164062 5.007812 13.371094 5.273438 13.441406 C 5.359375 13.464844 5.640625 13.46875 7.492188 13.46875 C 9.828125 13.46875 9.699219 13.472656 9.902344 13.367188 C 10.105469 13.257812 10.277344 13.015625 10.320312 12.792969 C 10.332031 12.722656 10.335938 11.113281 10.335938 7.492188 C 10.335938 2.339844 10.335938 2.285156 10.304688 2.160156 C 10.285156 2.089844 10.253906 2 10.226562 1.957031 C 10.164062 1.84375 10.019531 1.707031 9.917969 1.648438 C 9.710938 1.542969 9.867188 1.550781 7.492188 1.550781 L 5.339844 1.550781 Z M 8.015625 2.375 C 8.039062 2.46875 8.042969 2.46875 7.5 2.46875 C 7.054688 2.46875 7.003906 2.46875 6.988281 2.441406 C 6.976562 2.421875 6.976562 2.402344 6.992188 2.375 L 7.011719 2.332031 L 8.003906 2.332031 Z M 9.929688 3.171875 C 10.035156 3.226562 10.027344 2.917969 10.027344 7.410156 C 10.027344 10.917969 10.023438 11.519531 10.003906 11.566406 C 9.957031 11.683594 10.140625 11.675781 7.5 11.675781 C 4.859375 11.675781 5.042969 11.683594 4.996094 11.566406 C 4.976562 11.519531 4.972656 10.917969 4.972656 7.414062 C 4.972656 4.40625 4.976562 3.300781 4.992188 3.261719 C 5.003906 3.234375 5.03125 3.195312 5.0625 3.175781 C 5.109375 3.148438 5.179688 3.148438 7.496094 3.148438 C 9.628906 3.148438 9.886719 3.148438 9.929688 3.171875 Z M 7.671875 12.078125 C 7.78125 12.113281 7.925781 12.257812 7.960938 12.363281 C 8.023438 12.542969 7.984375 12.730469 7.863281 12.863281 C 7.761719 12.976562 7.648438 13.03125 7.503906 13.03125 C 7.363281 13.03125 7.269531 12.992188 7.160156 12.886719 C 7.019531 12.761719 6.972656 12.554688 7.039062 12.363281 C 7.074219 12.261719 7.21875 12.113281 7.320312 12.078125 C 7.417969 12.042969 7.574219 12.042969 7.671875 12.078125 Z M 7.671875 12.078125 "/>
<path style=" stroke:none;fill-rule:nonzero;fill:rgb(0%,0%,0%);fill-opacity:1;" d="M 7.78125 5.730469 C 7.710938 5.78125 7.746094 5.882812 7.84375 5.910156 C 7.921875 5.933594 8.195312 6.085938 8.300781 6.164062 C 8.550781 6.351562 8.796875 6.667969 8.910156 6.949219 C 9.019531 7.226562 9.0625 7.605469 9.015625 7.886719 C 8.996094 7.984375 9 7.992188 9.035156 8.03125 C 9.15625 8.164062 9.226562 7.960938 9.207031 7.507812 C 9.199219 7.242188 9.148438 7.03125 9.050781 6.800781 C 8.851562 6.335938 8.476562 5.964844 8.015625 5.773438 C 7.855469 5.707031 7.824219 5.703125 7.78125 5.730469 Z M 7.78125 5.730469 "/>
<path style=" stroke:none;fill-rule:nonzero;fill:rgb(0%,0%,0%);fill-opacity:1;" d="M 6.175781 6.3125 C 6 6.417969 5.957031 6.46875 5.898438 6.628906 C 5.851562 6.761719 5.847656 7.074219 5.890625 7.261719 C 6.035156 7.882812 6.496094 8.660156 6.925781 9.003906 C 7.15625 9.1875 7.371094 9.269531 7.570312 9.257812 C 7.65625 9.253906 7.691406 9.238281 7.832031 9.15625 C 7.984375 9.0625 8.039062 9.015625 8.039062 8.96875 C 8.039062 8.949219 7.71875 8.378906 7.660156 8.292969 C 7.613281 8.230469 7.5625 8.238281 7.378906 8.347656 C 7.203125 8.457031 7.175781 8.457031 7.09375 8.390625 C 6.988281 8.308594 6.746094 7.960938 6.625 7.71875 C 6.503906 7.480469 6.464844 7.320312 6.503906 7.238281 C 6.511719 7.222656 6.589844 7.171875 6.667969 7.125 C 6.816406 7.039062 6.863281 6.996094 6.863281 6.945312 C 6.863281 6.914062 6.53125 6.332031 6.472656 6.257812 C 6.417969 6.1875 6.359375 6.199219 6.175781 6.3125 Z M 6.175781 6.3125 "/>
<path style=" stroke:none;fill-rule:nonzero;fill:rgb(0%,0%,0%);fill-opacity:1;" d="M 7.597656 6.265625 C 7.546875 6.292969 7.535156 6.375 7.578125 6.410156 C 7.59375 6.421875 7.648438 6.449219 7.703125 6.472656 C 8.199219 6.664062 8.507812 7.195312 8.445312 7.738281 C 8.433594 7.859375 8.433594 7.886719 8.453125 7.917969 C 8.484375 7.960938 8.5625 7.96875 8.589844 7.933594 C 8.601562 7.921875 8.617188 7.84375 8.625 7.757812 C 8.652344 7.507812 8.609375 7.238281 8.503906 7.015625 C 8.347656 6.6875 8.125 6.457031 7.824219 6.320312 C 7.664062 6.246094 7.644531 6.242188 7.597656 6.265625 Z M 7.597656 6.265625 "/>
<path style=" stroke:none;fill-rule:nonzero;fill:rgb(0%,0%,0%);fill-opacity:1;" d="M 7.429688 6.847656 C 7.414062 6.859375 7.394531 6.878906 7.382812 6.898438 C 7.359375 6.949219 7.398438 6.996094 7.519531 7.054688 C 7.648438 7.121094 7.730469 7.207031 7.796875 7.351562 C 7.84375 7.445312 7.847656 7.476562 7.851562 7.621094 C 7.855469 7.757812 7.859375 7.785156 7.882812 7.804688 C 7.976562 7.871094 8.039062 7.792969 8.039062 7.601562 C 8.039062 7.300781 7.863281 7.015625 7.597656 6.882812 C 7.484375 6.828125 7.472656 6.824219 7.429688 6.847656 Z M 7.429688 6.847656 "/>
</g>
</svg>
