<?xml version="1.0" encoding="UTF-8"?>
<svg xmlns="http://www.w3.org/2000/svg" xmlns:xlink="http://www.w3.org/1999/xlink" width="23px" height="15px" viewBox="0 0 13 15" version="1.1">
<g id="surface1">
<path style=" stroke:none;fill-rule:nonzero;fill:rgb(0%,0%,0%);fill-opacity:1;" d="M 6.210938 0.015625 C 6.128906 0.0234375 5.980469 0.0429688 5.886719 0.0546875 C 3.996094 0.3125 2.375 1.84375 1.9375 3.78125 C 1.726562 4.714844 1.757812 5.882812 2.03125 7.171875 C 2.453125 9.164062 3.515625 11.460938 4.894531 13.347656 C 5.535156 14.226562 6.292969 15 6.511719 15 C 6.609375 15 6.855469 14.792969 7.246094 14.382812 C 7.660156 13.941406 7.878906 13.667969 8.28125 13.101562 C 9.925781 10.757812 10.976562 8.125 11.171875 5.832031 C 11.285156 4.507812 11.089844 3.417969 10.578125 2.496094 C 10.363281 2.117188 10.144531 1.824219 9.816406 1.476562 C 9.273438 0.902344 8.703125 0.523438 7.984375 0.265625 C 7.632812 0.140625 7.375 0.0859375 6.859375 0.03125 C 6.554688 0 6.457031 -0.00390625 6.210938 0.015625 Z M 6.792969 2.019531 C 7.039062 2.035156 7.171875 2.0625 7.410156 2.152344 C 8.257812 2.460938 8.902344 3.148438 9.199219 4.054688 C 9.304688 4.390625 9.308594 4.414062 9.308594 4.996094 C 9.308594 5.578125 9.304688 5.605469 9.199219 5.9375 C 8.941406 6.734375 8.394531 7.382812 7.679688 7.738281 C 7.511719 7.820312 7.195312 7.933594 7.054688 7.960938 C 6.914062 7.988281 6.085938 7.988281 5.945312 7.960938 C 5.664062 7.90625 5.1875 7.691406 4.917969 7.5 C 4.414062 7.140625 4.015625 6.605469 3.832031 6.027344 C 3.609375 5.351562 3.613281 4.59375 3.835938 3.957031 C 4.15625 3.035156 4.890625 2.339844 5.804688 2.082031 C 6.054688 2.007812 6.332031 1.992188 6.792969 2.019531 Z M 6.792969 2.019531 "/>
<path style=" stroke:none;fill-rule:nonzero;fill:rgb(0%,0%,0%);fill-opacity:1;" d="M 6.371094 3.515625 C 6.0625 3.574219 5.929688 3.625 5.746094 3.753906 C 5.457031 3.953125 5.234375 4.285156 5.140625 4.652344 C 5.09375 4.839844 5.09375 5.152344 5.140625 5.347656 C 5.203125 5.617188 5.359375 5.894531 5.546875 6.082031 C 5.816406 6.347656 6.140625 6.480469 6.5 6.480469 C 6.757812 6.480469 6.957031 6.425781 7.175781 6.296875 C 7.71875 5.980469 8.007812 5.285156 7.859375 4.664062 C 7.71875 4.089844 7.324219 3.675781 6.792969 3.550781 C 6.667969 3.519531 6.4375 3.5 6.371094 3.515625 Z M 6.371094 3.515625 "/>
</g>
</svg>
