<?xml version="1.0" encoding="UTF-8"?>
<svg xmlns="http://www.w3.org/2000/svg" xmlns:xlink="http://www.w3.org/1999/xlink" width="23px" height="15px" viewBox="0 0 25 15" version="1.1">
<g id="surface1">
<path style=" stroke:none;fill-rule:nonzero;fill:rgb(0%,0%,0%);fill-opacity:1;" d="M 11.957031 0.015625 C 10.910156 0.125 10.097656 0.371094 9.230469 0.835938 C 7.542969 1.742188 6.257812 3.34375 5.695312 5.234375 C 5.480469 5.972656 5.40625 6.523438 5.40625 7.382812 C 5.40625 8.082031 5.4375 8.410156 5.554688 8.972656 C 5.953125 10.824219 7.039062 12.46875 8.578125 13.539062 C 8.945312 13.792969 9.65625 14.167969 10.070312 14.324219 C 10.429688 14.460938 11.089844 14.632812 11.515625 14.699219 C 11.980469 14.773438 13.019531 14.773438 13.484375 14.699219 C 13.910156 14.632812 14.570312 14.460938 14.929688 14.324219 C 15.347656 14.167969 16.054688 13.792969 16.417969 13.539062 C 17.820312 12.566406 18.851562 11.125 19.316406 9.46875 C 19.53125 8.722656 19.597656 8.21875 19.59375 7.371094 C 19.59375 6.523438 19.515625 5.960938 19.304688 5.234375 C 18.609375 2.894531 16.816406 1.035156 14.570312 0.324219 C 13.910156 0.113281 13.386719 0.0273438 12.640625 0.015625 C 12.324219 0.0117188 12.019531 0.0117188 11.957031 0.015625 Z M 12.035156 2.179688 C 12.125 2.355469 12.324219 2.480469 12.503906 2.480469 C 12.714844 2.476562 12.941406 2.296875 13 2.082031 C 13.015625 2.023438 13.027344 1.78125 13.027344 1.539062 L 13.027344 1.109375 L 13.308594 1.144531 C 14.558594 1.3125 15.765625 1.917969 16.699219 2.851562 C 17.683594 3.832031 18.339844 5.167969 18.507812 6.542969 L 18.542969 6.832031 L 18.070312 6.84375 C 17.566406 6.855469 17.5 6.871094 17.371094 7.015625 C 17.289062 7.101562 17.222656 7.273438 17.222656 7.382812 C 17.222656 7.496094 17.289062 7.667969 17.371094 7.753906 C 17.5 7.902344 17.566406 7.914062 18.070312 7.925781 L 18.546875 7.9375 L 18.511719 8.214844 C 18.421875 8.886719 18.246094 9.5 17.964844 10.109375 C 17.074219 12.023438 15.332031 13.339844 13.300781 13.625 L 13.027344 13.664062 L 13.027344 13.230469 C 13.027344 12.988281 13.015625 12.746094 13 12.6875 C 12.941406 12.46875 12.714844 12.289062 12.5 12.289062 C 12.285156 12.289062 12.058594 12.46875 12 12.6875 C 11.984375 12.746094 11.972656 12.988281 11.972656 13.230469 L 11.972656 13.664062 L 11.703125 13.625 C 11.039062 13.527344 10.464844 13.351562 9.863281 13.050781 C 8.632812 12.4375 7.632812 11.394531 7.035156 10.109375 C 6.753906 9.5 6.578125 8.886719 6.488281 8.210938 L 6.453125 7.933594 L 6.871094 7.933594 C 7.101562 7.933594 7.339844 7.917969 7.394531 7.902344 C 7.605469 7.84375 7.777344 7.609375 7.777344 7.382812 C 7.777344 7.160156 7.605469 6.925781 7.394531 6.867188 C 7.339844 6.851562 7.101562 6.835938 6.871094 6.835938 L 6.457031 6.835938 L 6.492188 6.546875 C 6.621094 5.484375 7.039062 4.445312 7.703125 3.535156 C 7.917969 3.238281 8.503906 2.628906 8.792969 2.402344 C 9.667969 1.714844 10.6875 1.273438 11.6875 1.144531 L 11.957031 1.109375 L 11.972656 1.601562 C 11.984375 1.980469 11.996094 2.113281 12.035156 2.179688 Z M 12.035156 2.179688 "/>
<path style=" stroke:none;fill-rule:nonzero;fill:rgb(0%,0%,0%);fill-opacity:1;" d="M 12.292969 3.601562 C 12.152344 3.667969 12.039062 3.804688 12 3.953125 C 11.980469 4.027344 11.972656 4.648438 11.976562 5.789062 C 11.984375 7.472656 11.984375 7.515625 12.042969 7.628906 C 12.074219 7.691406 12.15625 7.78125 12.21875 7.832031 L 12.339844 7.917969 L 13.304688 7.925781 C 13.945312 7.933594 14.3125 7.925781 14.390625 7.902344 C 14.792969 7.792969 14.910156 7.273438 14.601562 6.988281 C 14.546875 6.9375 14.457031 6.882812 14.398438 6.867188 C 14.339844 6.851562 14.015625 6.835938 13.660156 6.835938 L 13.027344 6.835938 L 13.027344 5.441406 C 13.027344 4.574219 13.015625 4.011719 13 3.945312 C 12.941406 3.726562 12.714844 3.546875 12.5 3.546875 C 12.445312 3.546875 12.351562 3.574219 12.292969 3.601562 Z M 12.292969 3.601562 "/>
</g>
</svg>
